HIERARCHY
ROOT Hips
{
	OFFSET 0.00000 0.00000 0.00000
	CHANNELS 6 Xposition Yposition Zposition Zrotation Yrotation Xrotation 
	JOINT LHipJoint
	{
		OFFSET 0 0 0
		CHANNELS 3 Zrotation Yrotation Xrotation
		JOINT LeftHip
		{
			OFFSET 1.24777 -1.64261 0.71711
			CHANNELS 3 Zrotation Yrotation Xrotation
			JOINT LeftKnee
			{
				OFFSET 2.49329 -6.85026 0.00000
				CHANNELS 3 Zrotation Yrotation Xrotation
				JOINT LeftAnkle
				{
					OFFSET 2.36770 -6.50520 0.00000
					CHANNELS 3 Zrotation Yrotation Xrotation
					JOINT LeftToe
					{
						OFFSET 0.14820 -0.40718 2.21395
						CHANNELS 3 Zrotation Yrotation Xrotation
						End Site
						{
							OFFSET 0.00000 -0.00000 1.13491
						}
					}
				}
			}
		}
	}
	JOINT RHipJoint
	{
		OFFSET 0 0 0
		CHANNELS 3 Zrotation Yrotation Xrotation
		JOINT RightHip
		{
			OFFSET -1.18320 -1.64261 0.71711
			CHANNELS 3 Zrotation Yrotation Xrotation
			JOINT RightKnee
			{
				OFFSET -2.46559 -6.77417 0.00000
				CHANNELS 3 Zrotation Yrotation Xrotation
				JOINT RightAnkle
				{
					OFFSET -2.38450 -6.55136 0.00000
					CHANNELS 3 Zrotation Yrotation Xrotation
					JOINT RightToe
					{
						OFFSET -0.17454 -0.47954 2.02925
						CHANNELS 3 Zrotation Yrotation Xrotation
						End Site
						{
							OFFSET -0.00000 -0.00000 1.05076
						}
					}
				}
			}
		}
	}
	JOINT lowerback
	{
		OFFSET 0 0 0
		CHANNELS 3 Zrotation Yrotation Xrotation
		JOINT Chest
		{
			OFFSET -0.02305 1.98660 0.00319
			CHANNELS 3 Zrotation Yrotation Xrotation
			JOINT Chest2
			{
				OFFSET -0.00718 1.99033 -0.00533
				CHANNELS 3 Zrotation Yrotation Xrotation
				JOINT lowerneck
				{
					OFFSET 0 0 0
					CHANNELS 3 Zrotation Yrotation Xrotation
					JOINT Neck
					{
						OFFSET 0.00095 1.61015 0.10698
						CHANNELS 3 Zrotation Yrotation Xrotation
						JOINT Head
						{
							OFFSET -0.01060 1.59924 0.01317
							CHANNELS 3 Zrotation Yrotation Xrotation
							End Site
							{
								OFFSET -0.00458 1.63304 -0.00592
							}
						}
					}
				}
				JOINT LeftCollar
				{
					OFFSET 0 0 0
					CHANNELS 3 Zrotation Yrotation Xrotation
					JOINT LeftShoulder
					{
						OFFSET 3.05381 1.47088 -0.01697
CHANNELS 3 Zrotation Xrotation Yrotation
						JOINT LeftElbow
						{
OFFSET 0 -4.251060 0.000000
CHANNELS 3 Zrotation Xrotation Yrotation
							JOINT LeftWrist
							{
OFFSET 0 -3.275920 0.000000
CHANNELS 3 Zrotation Xrotation Yrotation
								JOINT lhand
								{
									OFFSET 0 0 0
CHANNELS 3 Zrotation Xrotation Yrotation
									JOINT LFingers
									{
OFFSET 0 -0.657810 0.000000
CHANNELS 3 Zrotation Xrotation Yrotation
										End Site
										{
OFFSET 0 -0.530340 0.000000
										}
									}
								}
								JOINT LThumb
								{
OFFSET 0 0.000000 0.000000
CHANNELS 3 Zrotation Xrotation Yrotation
									End Site
									{
OFFSET 0 -0.538440 0.538440
									}
								}
							}
						}
					}
				}
				JOINT RightCollar
				{
					OFFSET 0 0 0
					CHANNELS 3 Zrotation Yrotation Xrotation
					JOINT RightShoulder
					{
						OFFSET -2.83695 1.31619 -0.22674
CHANNELS 3 Zrotation Xrotation Yrotation
						JOINT RightElbow
						{
OFFSET 0 -4.460730 0.000000
CHANNELS 3 Zrotation Xrotation Yrotation
							JOINT RightWrist
							{
OFFSET 0 -3.444160 0.000000
CHANNELS 3 Zrotation Xrotation Yrotation
								JOINT rhand
								{
									OFFSET 0 0 0
CHANNELS 3 Zrotation Xrotation Yrotation
									JOINT RFingers
									{
OFFSET 0 -0.616510 0.000000
CHANNELS 3 Zrotation Xrotation Yrotation
										End Site
										{
OFFSET 0 -0.497050 0.000000
										}
									}
								}
								JOINT RThumb
								{
OFFSET 0 0.000000 0.000000
CHANNELS 3 Zrotation Xrotation Yrotation
									End Site
									{
OFFSET 0 -0.504640 0.504640
									}
								}
							}
						}
					}
				}
			}
		}
	}
}
MOTION
Frames: 12
Frame Time: 0.008333333333333333
3.990163 15.775527 -6.341234 -11.860412 36.725487 3.976975 0.000000 0.000000 0.000000 2.004292 -4.275630 -46.077480 8.818565 16.688725 55.459331 1.573298 -3.169066 -22.904584 0.950595 -6.207447 -17.388005 0.000000 0.000000 0.000000 3.258936 9.550842 -6.962547 -4.443809 -12.713188 38.328758 0.839376 -29.892869 16.389801 -2.750254 10.275347 -29.876803 3.602647 -0.079006 4.165584 2.025192 0.125980 0.090175 0.054217 0.039475 -2.241243 4.212506 -6.281666 -8.858096 2.185445 -9.105035 6.564935 -0.535952 -4.289417 3.608599 0.000000 0.000000 0.000000 21.786704 11.998605 -57.083775 36.559204 -45.893528 15.922865 12.579185 -19.017486 -4.484377 0.000000 0.000000 0.000000 -7.125000 0.000000 0.000000 -11.570314 34.390895 -3.065052 0.000000 0.000000 0.000000 -50.828123 -5.264506 7.791327 -141.086623 -47.412572 -102.364968 61.923880 -58.888762 12.607391 0.000000 0.000000 0.000000 7.125000 0.000000 0.000000 46.016534 17.257276 50.867398
4.174321 15.896657 -6.326298 -11.614241 40.630106 3.618019 0.000000 0.000000 0.000000 0.785536 -7.554487 -44.703164 8.299036 16.334138 53.631594 1.528141 -3.698381 -22.465359 0.818020 -5.770543 -16.120167 0.000000 0.000000 0.000000 3.696287 9.879629 -8.881578 -6.068343 -14.481253 45.231225 -0.753681 -21.107388 20.358760 -2.491118 9.821713 -28.401203 3.058650 -0.122211 4.225941 1.942766 0.043366 0.075203 0.278723 0.002889 -2.292563 3.952017 -6.510509 -8.795840 2.174322 -9.376382 6.604768 -0.509154 -4.430168 3.619463 0.000000 0.000000 0.000000 21.432098 10.949135 -57.335142 37.213377 -46.329189 16.394290 12.685124 -19.668247 -5.086446 0.000000 0.000000 0.000000 -7.125000 0.000000 0.000000 -11.578891 34.999689 -2.892732 0.000000 0.000000 0.000000 -48.305437 -6.006417 0.326544 -140.598251 -47.711382 -102.004548 44.211572 -51.126620 15.782287 0.000000 0.000000 0.000000 7.125000 0.000000 0.000000 52.365643 36.804506 17.727418
4.343545 16.014324 -6.302382 -11.355036 44.277793 3.197571 0.000000 0.000000 0.000000 -0.519040 -10.074965 -43.168336 7.777223 15.952627 51.755711 1.488473 -4.375028 -22.056456 0.747425 -5.522119 -15.403829 0.000000 0.000000 0.000000 4.246154 10.092929 -11.283409 -8.009876 -16.121252 52.589799 -1.435027 -10.822611 21.667255 -2.434299 9.717282 -28.066149 2.445546 -0.114687 4.473443 1.802423 0.028433 0.095913 0.479037 0.000309 -2.410089 3.770588 -6.707250 -8.702451 2.080893 -9.606354 6.648387 -0.518521 -4.552758 3.617995 0.000000 0.000000 0.000000 21.195425 9.993271 -57.581063 37.865641 -46.753150 16.867701 12.714184 -20.332575 -5.431999 0.000000 0.000000 0.000000 -7.125000 0.000000 0.000000 -11.611140 35.347837 -2.800739 0.000000 0.000000 0.000000 -45.451909 -6.821029 -5.346744 -140.238383 -47.927979 -101.737937 20.372257 -40.450273 18.119292 0.000000 0.000000 0.000000 7.125000 0.000000 0.000000 42.585005 43.657515 1.877020
4.502597 16.130206 -6.267029 -11.095281 47.690810 2.750688 0.000000 0.000000 0.000000 -1.916701 -11.763205 -41.555406 7.258558 15.545498 49.845163 1.449696 -5.205827 -21.657684 0.724128 -5.437517 -15.160803 0.000000 0.000000 0.000000 4.946007 10.296035 -13.997239 -10.138649 -17.483676 59.945958 -1.370276 -2.654829 21.442224 -2.248618 9.365694 -26.946201 1.828884 -0.088762 4.814059 1.593367 0.033746 0.152396 0.609646 0.007840 -2.542799 3.730735 -6.844646 -8.639236 1.891239 -9.770085 6.762331 -0.581856 -4.641089 3.635172 0.000000 0.000000 0.000000 21.076679 9.140883 -57.729893 38.406883 -47.097121 17.263018 12.649784 -20.865837 -5.490134 0.000000 0.000000 0.000000 -7.125000 0.000000 0.000000 -11.673517 35.402848 -2.800372 0.000000 0.000000 0.000000 -42.322606 -7.713597 -8.821944 -139.914036 -48.120680 -101.496770 -5.080184 -27.959070 20.427312 0.000000 0.000000 0.000000 7.125000 0.000000 0.000000 22.742353 49.077263 -2.339614
4.658028 16.243594 -6.218695 -10.849028 50.934868 2.299631 0.000000 0.000000 0.000000 -3.365412 -12.756453 -39.912382 6.756510 15.122547 47.945755 1.408598 -6.137558 -21.265357 0.713555 -5.398241 -15.047936 0.000000 0.000000 0.000000 5.812312 10.392627 -16.953468 -12.322502 -18.515817 66.999013 -1.179142 2.283519 21.471438 -2.116630 9.104728 -26.123487 1.206098 -0.085262 5.137373 1.364796 0.002455 0.244181 0.726407 -0.002136 -2.629346 3.712412 -6.905814 -8.625412 1.674431 -9.839011 7.004494 -0.658703 -4.679050 3.705516 0.000000 0.000000 0.000000 20.964753 8.356054 -57.712761 38.705730 -47.284081 17.482245 12.621192 -21.242837 -5.352463 0.000000 0.000000 0.000000 -7.125000 0.000000 0.000000 -11.674254 35.263343 -2.841027 0.000000 0.000000 0.000000 -39.136794 -8.704831 -10.466555 -139.151861 -48.563911 -100.927211 -29.142355 -11.327338 23.852961 0.000000 0.000000 0.000000 7.125000 0.000000 0.000000 -0.068173 56.914037 0.290937
4.816579 16.349958 -6.160991 -10.605061 54.107750 1.903124 0.000000 0.000000 0.000000 -4.810925 -13.379805 -38.298715 6.286927 14.699795 46.120817 1.358415 -7.039916 -20.842395 0.688852 -5.305833 -14.783054 0.000000 0.000000 0.000000 6.763103 10.208978 -20.200414 -14.461455 -19.239499 73.602284 -1.099063 4.388716 21.844160 -2.132087 9.135719 -26.220876 0.635155 -0.117277 5.384152 1.121561 -0.078653 0.326380 0.803094 -0.037390 -2.682012 3.699090 -6.920972 -8.623419 1.454736 -9.851008 7.377241 -0.739144 -4.685052 3.825201 0.000000 0.000000 0.000000 20.820998 7.576122 -57.609766 38.696963 -47.278597 17.475769 12.992289 -21.507286 -5.324894 0.000000 0.000000 0.000000 -7.125000 0.000000 0.000000 -11.366150 35.254030 -2.766204 0.000000 0.000000 0.000000 -36.039013 -9.574108 -11.073792 -137.748616 -49.346554 -99.868368 -50.902056 12.917946 28.847935 0.000000 0.000000 0.000000 7.125000 0.000000 0.000000 -33.625737 68.547879 20.908687
4.982030 16.444284 -6.098196 -10.400498 57.272055 1.565316 0.000000 0.000000 0.000000 -6.174215 -13.899068 -36.767646 5.866114 14.296499 44.440446 1.291088 -7.840957 -20.317412 0.633443 -5.091878 -14.170942 0.000000 0.000000 0.000000 7.766369 9.697213 -23.765741 -16.476407 -19.692881 79.644602 -1.133920 4.316195 22.103464 -2.129632 9.130975 -26.205902 0.152522 -0.165533 5.546092 0.900021 -0.178110 0.357111 0.854217 -0.082593 -2.739299 3.637256 -6.947441 -8.598104 1.249856 -9.873988 7.841896 -0.809546 -4.694974 3.976999 0.000000 0.000000 0.000000 20.552963 6.741824 -57.525633 38.374068 -47.076351 17.239084 13.570528 -21.686877 -5.532296 0.000000 0.000000 0.000000 -7.125000 0.000000 0.000000 -10.925249 35.491965 -2.591259 0.000000 0.000000 0.000000 -33.124740 -9.919935 -11.072392 -135.945459 -50.294430 -98.490461 -70.228580 44.226613 33.731363 0.000000 0.000000 0.000000 7.125000 0.000000 0.000000 -95.466124 8.868479 -18.388714
5.156648 16.523034 -6.032452 -10.234745 60.424952 1.282294 0.000000 0.000000 0.000000 -7.431376 -14.450166 -35.329067 5.505042 13.930444 42.960459 1.207741 -8.595577 -19.689531 0.555384 -4.772595 -13.261420 0.000000 0.000000 0.000000 8.822758 8.997716 -27.552087 -18.298168 -19.926341 85.017620 -1.199222 2.719838 21.838577 -1.923913 8.702008 -24.870033 -0.240909 -0.206852 5.618223 0.713846 -0.263475 0.335363 0.890705 -0.121324 -2.800006 3.495701 -7.030071 -8.547538 1.072063 -9.963170 8.344750 -0.862124 -4.738207 4.143307 0.000000 0.000000 0.000000 20.099423 5.853056 -57.482252 37.817296 -46.721924 16.832517 14.048350 -21.730126 -5.849898 0.000000 0.000000 0.000000 -7.125000 0.000000 0.000000 -10.582291 35.837595 -2.416963 0.000000 0.000000 0.000000 -30.398419 -9.380237 -10.229745 -134.271596 -51.119257 -97.195328 -82.974133 68.218609 35.999257 0.000000 0.000000 0.000000 7.125000 0.000000 0.000000 -129.680598 -66.286443 -151.075960
5.339501 16.586085 -5.965317 -10.048674 63.528043 1.062435 0.000000 0.000000 0.000000 -8.606211 -15.085664 -33.957283 5.210255 13.616561 41.723019 1.110383 -9.536818 -18.991863 0.451121 -4.307576 -11.943895 0.000000 0.000000 0.000000 9.869644 8.404311 -31.396720 -19.874195 -19.998208 89.632243 -1.218761 -0.215532 20.819689 -1.349159 7.344114 -20.742943 -0.596367 -0.248074 5.644037 0.569804 -0.345689 0.285693 0.948917 -0.158404 -2.863088 3.242098 -7.162487 -8.464612 0.931765 -10.104904 8.819019 -0.884996 -4.810805 4.301521 0.000000 0.000000 0.000000 19.429141 5.013000 -57.386179 37.185656 -46.311085 16.374176 14.280011 -21.562810 -6.150717 0.000000 0.000000 0.000000 -7.125000 0.000000 0.000000 -10.438633 36.154716 -2.301040 0.000000 0.000000 0.000000 -27.922690 -7.857730 -7.949162 -133.051984 -51.687658 -96.242347 -84.236406 71.527860 36.931748 0.000000 0.000000 0.000000 7.125000 0.000000 0.000000 -134.236037 -65.151876 -155.383231
5.528330 16.631351 -5.896644 -9.724660 66.549043 0.938127 0.000000 0.000000 0.000000 -9.762144 -15.822523 -32.606014 4.991916 13.374608 40.787720 1.003481 -10.838945 -18.319850 0.324565 -3.661198 -10.125381 0.000000 0.000000 0.000000 10.834302 8.082588 -35.116459 -21.162435 -19.967144 93.400558 -1.097775 -3.648828 18.926604 -0.698771 5.338420 -14.877478 -0.964586 -0.307552 5.674794 0.440761 -0.452777 0.259411 1.031784 -0.207340 -2.903367 2.916838 -7.318278 -8.360861 0.826058 -10.268759 9.230491 -0.883446 -4.897511 4.439858 0.000000 0.000000 0.000000 18.609278 4.348071 -57.140424 36.647844 -45.953550 15.986376 14.183021 -21.205740 -6.252705 0.000000 0.000000 0.000000 -7.125000 0.000000 0.000000 -10.535355 36.252597 -2.297378 0.000000 0.000000 0.000000 -25.845640 -5.567011 -4.014637 -132.099059 -52.112922 -95.492451 -75.900533 58.313838 37.570613 0.000000 0.000000 0.000000 7.125000 0.000000 0.000000 -118.074686 -71.865508 -135.867463
5.720845 16.657576 -5.826313 -9.159359 69.463956 0.943050 0.000000 0.000000 0.000000 -10.955360 -16.629792 -31.251806 4.863618 13.228521 40.230159 0.888321 -12.469189 -17.755895 0.193403 -2.825141 -7.792708 0.000000 0.000000 0.000000 11.658300 8.132428 -38.564351 -22.126764 -19.890375 96.229221 -0.860086 -6.637619 16.556416 -0.308854 3.555489 -9.831290 -1.338549 -0.392162 5.761840 0.274091 -0.595070 0.292810 1.082129 -0.274126 -2.912220 2.624711 -7.460637 -8.218548 0.760491 -10.419036 9.582258 -0.869923 -4.976727 4.550681 0.000000 0.000000 0.000000 17.820523 3.973188 -56.782674 36.354138 -45.755206 15.775687 13.923263 -20.803533 -6.107339 0.000000 0.000000 0.000000 -7.125000 0.000000 0.000000 -10.726650 36.091222 -2.383302 0.000000 0.000000 0.000000 -24.292467 -2.938500 1.218110 -130.970201 -52.596027 -94.598476 -63.674158 40.886168 37.569444 0.000000 0.000000 0.000000 7.125000 0.000000 0.000000 -89.662086 47.086454 36.867790
5.915236 16.666338 -5.754091 -8.241762 72.273560 1.188922 0.000000 0.000000 0.000000 -12.227443 -17.406625 -29.927924 4.826455 13.185719 40.067612 0.767855 -14.238760 -17.333933 0.087898 -1.896204 -5.219359 0.000000 0.000000 0.000000 12.284369 8.591763 -41.698185 -22.762842 -19.815569 98.102053 -0.624763 -8.741161 14.463023 -0.184287 2.763763 -7.621793 -1.790429 -0.512628 5.916909 0.094572 -0.790923 0.383062 1.167981 -0.366734 -2.896804 2.392823 -7.555143 -8.061789 0.704004 -10.512470 9.946025 -0.859716 -5.025194 4.661589 0.000000 0.000000 0.000000 17.086891 3.928776 -56.339309 36.318458 -45.731024 15.750153 13.861253 -20.528378 -5.796953 0.000000 0.000000 0.000000 -7.125000 0.000000 0.000000 -10.728208 35.774108 -2.467919 0.000000 0.000000 0.000000 -23.293937 -0.457970 7.148380 -129.549787 -53.174218 -93.465524 -49.882778 24.579786 37.462855 0.000000 0.000000 0.000000 7.125000 0.000000 0.000000 -38.106003 77.537621 30.132551
